<?xml version="1.0" encoding="utf-8"?>
<!-- Generator: Adobe Illustrator 18.0.0, SVG Export Plug-In . SVG Version: 6.00 Build 0)  -->
<!DOCTYPE svg PUBLIC "-//W3C//DTD SVG 1.1//EN" "http://www.w3.org/Graphics/SVG/1.1/DTD/svg11.dtd">
<svg version="1.1" id="Layer_1" xmlns="http://www.w3.org/2000/svg" xmlns:xlink="http://www.w3.org/1999/xlink" x="0px" y="0px"
	 viewBox="0 0 100 100" enable-background="new 0 0 100 100" xml:space="preserve">
<path fill="#fff" d="M76.2,59.3c-6.7-0.9-13.4,0.7-17.8,6.3c-1.9,2.5-3.5,5.7-4,8.9c-0.2,1.2,1.6,1.7,1.8,0.5c0.4-2.7,1.6-5.3,3.1-7.5
	c3.9-5.7,10.5-7.1,16.8-6.2C77.3,61.3,77.3,59.4,76.2,59.3z"/>
<path fill="#fff" d="M99.9,71.7c-0.7-9.3-6-17.2-14-21.5c-5.9-3.2-13-3.5-19.3-1.5l-0.5-21.2h-8.8v6.9l-3.9,0v-6.9h-2.9V16.9h25.7V0H48.7v27.5
	h-3.1v6.8H42v-6.9l-8.3,0l-0.5,17.4c-8.3,0.5-14.5,7.2-15.8,15.4c-3.5,0.3-6.9,1.6-9.7,3.6C-3.3,71.8-2,89.1,8.5,96.9
	c3.6,2.7,7.7,3.1,12,3.1c4,0,7.9,0,11.9,0c11.4,0,22.9,0,34.3,0c3.3,0,6.6,0,9.8,0c4.8,0,10-2.8,13.6-5.7
	C97.1,88.8,100.6,80.6,99.9,71.7z M67.7,1.9h6.7V15h-6.7V1.9z M59.1,1.9h6.8V15h-6.8V1.9z M50.5,1.9h6.7V15h-6.7V1.9z M35.5,29.4
	l4.7,0v6.8h7.2v-6.8h4.2v6.9l7.5-0.1v-6.8h5.2L64.6,41H35.2L35.5,29.4z M33.2,46.8l-0.5,19.1c-1.1-1.1-2.2-2.1-3.4-2.9
	c-2.9-1.9-6.4-2.8-9.9-2.8C20.5,53,26,47.3,33.2,46.8z M91.1,91c-3.6,3.6-9.4,7.1-14.6,7.1c-18.7,0-37.4,0-56.1,0
	c-0.6,0-1.3,0-1.9,0c-4.1,0-7.7-1.3-10.8-4.2c-5.2-4.8-7.5-13.2-5.2-20c2.3-6.9,8.3-11.1,15.2-11.8c7.7-0.7,14.2,3.6,17.4,10.6
	c0.5,1,0.9,2.2,1.1,3.3c-1.8,0.5-3.3,1.7-4.7,2.7c-0.9,0.7,0,2.3,0.9,1.6c1.6-1.2,3.1-2.6,5.2-2.8c3-0.3,5.5,1,7.8,2.8
	c1,0.7,1.9-0.9,0.9-1.6c-2.5-1.9-5.2-3.1-8.4-3c0,0,0,0,0,0c-0.6-2.8-1.9-5.6-3.6-7.9l0.2-6.7c2.5,0,5.1,0,7.6,0c0.1,0,0.2,0,0.2,0
	c1.2,0,1.2-1.9,0-1.9c-0.1,0-0.2,0-0.2,0c-2.5,0-5,0-7.5,0l0.2-7c4,0,8.1,0,12.1,0c1.2,0,1.2-1.9,0-1.9c-4,0-8,0-12,0l0.2-7.5h29.5
	l0.1,6.4c-2.5,1-4.9,2.3-7,4c-0.9,0.7,0.4,2.1,1.3,1.3c-0.2,0.2,0.7-0.5,0.9-0.6c1-0.7,2-1.2,3.1-1.8c3.3-1.7,6.9-2.7,10.6-2.9
	c10.1-0.6,19.6,6.1,23.1,15.7C100,74,97.9,84.4,91.1,91z"/>
</svg>
