<?xml version="1.0" encoding="utf-8"?>
<!-- Generator: Adobe Illustrator 16.0.4, SVG Export Plug-In . SVG Version: 6.00 Build 0)  -->
<!DOCTYPE svg PUBLIC "-//W3C//DTD SVG 1.1//EN" "http://www.w3.org/Graphics/SVG/1.1/DTD/svg11.dtd">
<svg version="1.1" id="Layer_1" xmlns="http://www.w3.org/2000/svg" xmlns:xlink="http://www.w3.org/1999/xlink" x="0px" y="0px"
	 width="487.301px" height="128.341px" viewBox="0 0 487.301 128.341" enable-background="new 0 0 487.301 128.341"
	 xml:space="preserve">
	<path fill="none" d="M247.641,159.131c-85.71,0-171.419-0.108-257.126,0.198c-7.039,0.025-8.505-1.412-8.46-8.457
		c0.363-56.219,0.308-112.442,0.048-168.664c-0.028-5.9,1.335-7.231,7.231-7.227c172.205,0.185,344.41,0.185,516.614,0.002
		c5.896-0.007,7.26,1.325,7.231,7.225c-0.259,56.221-0.314,112.445,0.049,168.664c0.045,7.043-1.422,8.482-8.459,8.457
		C419.06,159.023,333.351,159.131,247.641,159.131z M168.213,63.754c-0.013,0-0.025,0-0.038,0c0,8.644,0.072,17.285-0.021,25.926
		c-0.077,7.139,0.515,14.262,9.771,14.299c9.124,0.039,10.113-6.937,10.099-14.145c-0.027-14.14-0.014-28.282,0.076-42.425
		c0.023-3.591,0.27-7.86,5.113-7.62c4.124,0.203,3.93,4.287,3.98,7.36c0.126,7.856,0.014,15.713,0.081,23.569
		c0.059,6.978,2.122,12.788,10.307,12.99c8.347,0.209,10.423-5.58,10.505-12.599c0.103-8.639,0.058-17.282,0.188-25.921
		c0.045-2.995,1.214-5.63,4.649-5.595c3.378,0.032,4.607,2.635,4.674,5.625c0.159,7.067,0.135,14.138,0.226,21.208
		c0.084,6.473,1.767,11.979,9.498,12.341c7.616,0.355,10.477-4.697,10.675-11.27c0.32-10.595,0.313-21.215,0.014-31.809
		c-0.207-7.31-3.887-11.652-11.804-11.618c-18.779,0.081-37.558,0.09-56.335-0.014c-7.828-0.044-11.642,3.669-11.652,11.415
		C168.203,44.899,168.213,54.328,168.213,63.754z M463.475,63.937c0.013,0,0.024,0,0.037,0c0-9.023-0.206-18.054,0.058-27.073
		c0.265-9.015-3.936-13.025-12.775-12.721c-3.526,0.12-7.062,0.025-10.592-0.048c-5.706-0.12-10.202,1.758-11.394,7.847
		c-1.159,5.932,1.572,9.857,7.352,11.525c3.484,1.007,7.55,1.878,6.36,6.625c-1.125,4.495-5.579,3.462-8.934,3.665
		c-30.347,1.834-30.349,1.811-30.026,32.188c0.021,1.962,0.146,3.928,0.081,5.886c-0.275,8.376,4.027,12.334,12.123,12.396
		c11.771,0.092,23.543,0.043,35.316,0.022c8.799-0.016,12.775-4.356,12.464-13.241C463.229,81.995,463.475,72.962,463.475,63.937z
		 M361.134,104.152c0,0.041,0,0.085,0,0.127c3.531,0,7.062,0.004,10.593,0c18.742-0.023,19.994-1.339,20.081-19.945
		c0.156-33.696,1.804-30.556-33.023-30.627c-4.232-0.009-10.922,2.117-11.504-4.566c-0.546-6.28,5.833-4.76,9.783-5.303
		c5.892-0.811,9.53-3.842,9.438-9.94c-0.103-6.826-4.438-9.602-10.801-9.74c-4.312-0.095-8.629-0.069-12.943-0.028
		c-7.838,0.078-11.295,4.236-11.196,11.898c0.105,8.238,0.267,16.488-0.049,24.714c-0.369,9.657,4.429,13.534,13.561,13.428
		c7.846-0.09,15.693-0.027,23.538,0.025c3.211,0.021,6.862,0.177,7.094,4.333c0.28,5.013-3.789,5.211-7.403,5.255
		c-8.63,0.108-17.266-0.069-25.889,0.187c-6.272,0.187-10.58,3.14-10.658,9.978c-0.081,6.93,4.432,9.763,10.557,10.125
		C348.565,104.438,354.858,104.152,361.134,104.152z M95.181,63.824c-0.012,0-0.023,0-0.036,0c0,9.818-0.095,19.639,0.035,29.457
		c0.081,6.101,2.196,11.171,9.249,11.293c13.739,0.232,27.497,0.32,41.223-0.161c5.758-0.201,9.305-4.009,9.142-10.188
		c-0.152-5.736-3.813-8.583-9.007-9.06c-6.241-0.574-12.544-0.567-18.822-0.581c-7.101-0.014-11.324-3.428-11.657-10.44
		c-0.392-8.222-0.327-16.492,0.067-24.716c0.243-5.068,2.775-9.219,8.351-9.908c6.199-0.765,9.594,2.889,10.755,8.521
		c1.38,6.688,3.563,12.79,11.845,11.523c8.943-1.366,8.648-8.779,8.602-15.614c-0.02-2.748-0.039-5.499-0.075-8.247
		c-0.095-7.197-3.779-10.908-10.943-10.952c-12.569-0.074-25.139,0-37.708-0.039c-7.293-0.023-10.907,3.716-10.993,10.834
		C95.095,44.97,95.181,54.397,95.181,63.824z M259.775,61.414c-0.035,0-0.068,0-0.103,0c0,7.858-0.066,15.718,0.021,23.574
		c0.071,6.496,0.329,13.311,8.984,13.96c9.173,0.691,11.056-5.515,11.052-13.029c-0.004-8.457,4.575-11.965,12.694-11.765
		c4.711,0.115,9.432-0.126,14.143-0.011c9.474,0.235,13.579-4.29,13.156-13.726c-0.351-7.842-0.316-15.723-0.021-23.569
		c0.344-9.132-4.095-12.829-12.827-12.737c-11.393,0.12-22.792,0.17-34.18-0.078c-8.856-0.196-13.15,3.645-12.958,12.631
		C259.914,44.911,259.775,53.165,259.775,61.414z M22.981,63.451c0.014,0,0.028,0,0.042,0c0,6.657-0.008,13.315,0.002,19.973
		c0.029,19.867,3.452,22.836,23.746,20.839c5.477-0.536,10.092-2.057,11.027-8.381c0.881-5.959-1.628-10.009-7.477-11.431
		c-4.324-1.048-6.495-3.039-7.145-7.784c-3.814-27.847-1.122-31.309,26.497-32.68c0.784-0.039,1.565-0.079,2.349-0.099
		c6.375-0.159,10.748-2.97,10.863-9.703c0.128-7.533-4.786-10.081-11.578-10.074c-12.142,0.012-24.286,0.166-36.424-0.007
		c-8.566-0.12-12.001,4.213-11.923,12.322C23.048,45.434,22.981,54.441,22.981,63.451z M248,93.935
		c-0.974-6.16-4.128-10.212-10.753-9.841c-5.955,0.334-9.255,4.135-9.175,9.961c0.09,6.508,4.178,10.129,10.471,9.917
		C244.446,103.777,247.221,99.538,248,93.935z M83.027,93.667c-0.78-5.862-4.271-9.401-10.101-9.408
		c-5.917-0.009-9.732,3.651-9.684,9.626c0.053,6.389,3.766,10.517,10.405,10.118C79.567,103.647,82.506,99.57,83.027,93.667z
		 M72.592,108.124c-5.669,0.887-9.544,4.063-9.461,9.859c0.09,6.231,3.916,10.284,10.346,9.996
		c6.456-0.288,9.783-4.748,9.377-10.917C82.471,111.238,78.34,108.464,72.592,108.124z M381.408,19.92
		c5.887-0.265,9.646-3.287,10.012-9.274c0.358-5.877-2.586-10.017-8.74-10.399c-6.427-0.401-10.78,2.813-10.854,9.537
		C371.762,15.695,375.438,19.01,381.408,19.92z M19.745,95.375c-0.242-6.206-3.332-9.933-9.279-10.375
		C4.512,84.557,0.437,87.752,0,93.737c-0.47,6.438,3.095,10.654,9.658,10.859C15.637,104.783,18.878,101.031,19.745,95.375z
		 M50.924,117.674c-0.526-6.104-4.103-9.436-9.952-9.373c-5.897,0.06-9.613,3.577-9.54,9.663c0.079,6.55,3.886,10.425,10.432,9.996
		C47.714,127.576,50.858,123.726,50.924,117.674z M19.824,33.813c-0.901-6.024-4.088-9.519-10.134-9.579
		c-6.167-0.06-9.742,3.575-9.755,9.431c-0.014,6.414,3.787,10.235,10.481,10.01C16.668,43.466,19.132,39.315,19.824,33.813z
		 M445.089,0c-6.011,0.848-9.71,4.158-9.388,10.167c0.35,6.501,4.494,10.113,11.018,9.484c5.96-0.573,9.129-4.632,8.625-10.571
		C454.836,3.096,450.933,0.194,445.089,0z M477.208,84.677c-5.468,0.64-9.351,3.349-9.521,9.463
		c-0.183,6.535,3.389,10.369,9.84,10.452c5.84,0.075,9.457-3.23,9.712-9.314C487.516,88.606,483.875,85.34,477.208,84.677z
		 M104.871,128.181c5.715-0.775,9.591-3.528,9.748-9.688c0.171-6.762-3.74-10.386-10.145-10.185c-5.82,0.182-9.37,3.806-9.2,9.968
		C95.442,124.348,99.083,127.338,104.871,128.181z M391.483,33.146c-0.777-4.775-3.238-8.763-9.556-8.867
		c-6.044-0.097-9.868,2.921-10.145,8.963c-0.297,6.524,3.298,10.413,9.935,10.413C387.817,43.657,390.825,39.912,391.483,33.146z
		 M19.833,64.197c-0.758-5.549-3.504-9.332-9.7-9.523c-6.127-0.189-9.973,3.163-10.17,9.005
		c-0.212,6.284,3.366,10.509,10.081,10.433C16.103,74.045,19.06,70.219,19.833,64.197z M487.301,63.803
		c-0.679-5.851-3.912-9.226-9.958-9.125c-6.025,0.099-9.599,3.456-9.522,9.512c0.081,6.503,3.795,10.3,10.395,9.855
		C484.112,73.649,487.202,69.926,487.301,63.803z M414.456,43.747c5.559-0.827,9.063-4.043,8.872-10.051
		c-0.213-6.713-4.416-9.895-10.807-9.383c-6.019,0.479-8.987,4.433-8.489,10.408C404.534,40.715,408.178,43.65,414.456,43.747z
		 M413.493,19.855c5.619-0.336,9.431-3.202,9.855-9.18c0.424-5.964-2.768-9.851-8.706-10.348
		c-6.486-0.543-10.495,2.813-10.662,9.517C403.83,15.918,407.384,19.042,413.493,19.855z M279.635,118.624
		c-0.652-5.635-3.605-9.173-9.618-9.388c-6.051-0.214-9.71,3.083-9.979,8.92c-0.298,6.428,3.373,10.3,9.929,10.183
		C275.861,128.232,278.99,124.609,279.635,118.624z M477.264,43.766c5.931-0.226,9.561-3.283,9.911-9.236
		c0.352-5.934-2.761-9.802-8.8-10.214c-6.5-0.444-10.544,2.817-10.543,9.561C467.833,39.815,471.241,43.13,477.264,43.766z"/>
	<path fill="#fff" fill-rule="evenodd" clip-rule="evenodd" d="M168.213,63.754c0-9.427-0.01-18.855,0.003-28.282
		c0.011-7.745,3.824-11.458,11.652-11.415c18.777,0.104,37.557,0.094,56.335,0.014c7.917-0.035,11.597,4.308,11.804,11.618
		c0.3,10.594,0.307,21.214-0.014,31.809c-0.198,6.572-3.059,11.625-10.675,11.27c-7.731-0.362-9.414-5.868-9.498-12.341
		c-0.091-7.07-0.067-14.14-0.226-21.208c-0.067-2.99-1.296-5.593-4.674-5.625c-3.435-0.035-4.604,2.601-4.649,5.595
		c-0.13,8.639-0.085,17.282-0.188,25.921c-0.082,7.019-2.158,12.808-10.505,12.599c-8.185-0.203-10.248-6.013-10.307-12.99
		c-0.067-7.856,0.046-15.713-0.081-23.569c-0.05-3.073,0.144-7.157-3.98-7.36c-4.843-0.24-5.09,4.029-5.113,7.62
		c-0.09,14.143-0.104,28.285-0.076,42.425c0.014,7.208-0.976,14.184-10.099,14.145c-9.256-0.037-9.848-7.16-9.771-14.299
		c0.093-8.641,0.021-17.282,0.021-25.926C168.188,63.754,168.201,63.754,168.213,63.754z"/>
	<path fill="#fff" fill-rule="evenodd" clip-rule="evenodd" d="M463.475,63.937c0,9.026-0.246,18.059,0.07,27.071
		c0.312,8.885-3.665,13.226-12.464,13.241c-11.773,0.021-23.546,0.069-35.316-0.022c-8.096-0.062-12.398-4.021-12.123-12.396
		c0.064-1.958-0.061-3.923-0.081-5.886c-0.322-30.376-0.32-30.354,30.026-32.188c3.354-0.203,7.809,0.83,8.934-3.665
		c1.189-4.748-2.876-5.619-6.36-6.625c-5.779-1.667-8.511-5.593-7.352-11.525c1.191-6.089,5.688-7.966,11.394-7.847
		c3.53,0.074,7.065,0.168,10.592,0.048c8.84-0.304,13.04,3.707,12.775,12.721c-0.264,9.019-0.058,18.049-0.058,27.073
		C463.5,63.937,463.488,63.937,463.475,63.937z M433.246,83.85c3.73-0.519,9.435,1.269,9.325-5.331
		c-0.078-4.811-4.65-4.449-8.07-4.299c-3.975,0.173-9.779-1.525-10.168,4.607C423.985,84.308,429.281,83.522,433.246,83.85z"/>
	<path fill="#fff" fill-rule="evenodd" clip-rule="evenodd" d="M361.134,104.152c-6.276,0-12.569,0.286-18.823-0.08
		c-6.125-0.362-10.638-3.195-10.557-10.125c0.078-6.837,4.386-9.791,10.658-9.978c8.623-0.255,17.259-0.078,25.889-0.187
		c3.614-0.044,7.684-0.242,7.403-5.255c-0.231-4.156-3.883-4.312-7.094-4.333c-7.845-0.053-15.692-0.115-23.538-0.025
		c-9.132,0.106-13.93-3.771-13.561-13.428c0.315-8.226,0.154-16.476,0.049-24.714c-0.099-7.662,3.358-11.82,11.196-11.898
		c4.314-0.042,8.631-0.067,12.943,0.028c6.362,0.138,10.698,2.914,10.801,9.74c0.093,6.098-3.546,9.129-9.438,9.94
		c-3.95,0.543-10.329-0.977-9.783,5.303c0.582,6.683,7.271,4.557,11.504,4.566c34.827,0.071,33.18-3.069,33.023,30.627
		c-0.087,18.606-1.339,19.922-20.081,19.945c-3.531,0.004-7.062,0-10.593,0C361.134,104.237,361.134,104.193,361.134,104.152z"/>
	<path fill="#fff" fill-rule="evenodd" clip-rule="evenodd" d="M95.181,63.824c0-9.427-0.086-18.854,0.029-28.278
		c0.086-7.118,3.7-10.857,10.993-10.834c12.569,0.039,25.139-0.035,37.708,0.039c7.164,0.043,10.848,3.755,10.943,10.952
		c0.036,2.748,0.055,5.499,0.075,8.247c0.046,6.835,0.341,14.249-8.602,15.614c-8.282,1.267-10.465-4.835-11.845-11.523
		c-1.161-5.632-4.556-9.286-10.755-8.521c-5.576,0.688-8.108,4.84-8.351,9.908c-0.394,8.224-0.458,16.495-0.067,24.716
		c0.333,7.013,4.556,10.427,11.657,10.44c6.278,0.014,12.582,0.007,18.822,0.581c5.194,0.477,8.855,3.324,9.007,9.06
		c0.163,6.179-3.384,9.986-9.142,10.188c-13.727,0.481-27.484,0.394-41.223,0.161c-7.053-0.122-9.168-5.192-9.249-11.293
		c-0.129-9.818-0.035-19.639-0.035-29.457C95.158,63.824,95.169,63.824,95.181,63.824z"/>
	<path fill="#fff" fill-rule="evenodd" clip-rule="evenodd" d="M259.775,61.414c0-8.25,0.139-16.503-0.038-24.751
		c-0.192-8.986,4.102-12.827,12.958-12.631c11.388,0.249,22.787,0.198,34.18,0.078c8.732-0.092,13.171,3.605,12.827,12.737
		c-0.296,7.846-0.33,15.727,0.021,23.569c0.423,9.436-3.683,13.96-13.156,13.726c-4.711-0.115-9.432,0.126-14.143,0.011
		c-8.119-0.2-12.698,3.308-12.694,11.765c0.004,7.515-1.879,13.721-11.052,13.029c-8.655-0.649-8.913-7.464-8.984-13.96
		c-0.087-7.856-0.021-15.716-0.021-23.574C259.707,61.414,259.74,61.414,259.775,61.414z M289.311,43.945
		c-3.205,0.419-8.247-0.668-8.826,4.487c-0.64,5.676,4.512,5.375,8.183,5.273c3.857-0.108,9.627,1.488,9.826-4.808
		C298.671,43.312,293.46,44.388,289.311,43.945z"/>
	<path fill="#fff" fill-rule="evenodd" clip-rule="evenodd" d="M22.981,63.451c0-9.01,0.067-18.017-0.021-27.025
		c-0.078-8.109,3.356-12.442,11.923-12.322c12.138,0.173,24.282,0.019,36.424,0.007c6.792-0.007,11.706,2.541,11.578,10.074
		c-0.115,6.733-4.488,9.544-10.863,9.703c-0.783,0.021-1.565,0.06-2.349,0.099c-27.619,1.371-30.311,4.833-26.497,32.68
		c0.649,4.746,2.821,6.736,7.145,7.784c5.849,1.421,8.358,5.471,7.477,11.431c-0.935,6.324-5.55,7.845-11.027,8.381
		c-20.294,1.997-23.717-0.972-23.746-20.839c-0.011-6.658-0.002-13.315-0.002-19.973C23.009,63.451,22.995,63.451,22.981,63.451z"/>
	<path fill="#fff" fill-rule="evenodd" clip-rule="evenodd" d="M248,93.935c-0.779,5.603-3.554,9.842-9.457,10.037
		c-6.293,0.212-10.381-3.409-10.471-9.917c-0.08-5.826,3.221-9.627,9.175-9.961C243.871,83.723,247.026,87.775,248,93.935z"/>
	<path fill="#fff" fill-rule="evenodd" clip-rule="evenodd" d="M83.027,93.667c-0.521,5.902-3.46,9.979-9.379,10.337
		c-6.639,0.398-10.352-3.729-10.405-10.118c-0.048-5.975,3.767-9.636,9.684-9.626C78.756,84.267,82.247,87.805,83.027,93.667z"/>
	<path fill="#fff" fill-rule="evenodd" clip-rule="evenodd" d="M72.592,108.124c5.748,0.341,9.878,3.114,10.262,8.938
		c0.406,6.169-2.921,10.629-9.377,10.917c-6.43,0.288-10.256-3.765-10.346-9.996C63.048,112.187,66.923,109.01,72.592,108.124z"/>
	<path fill="#fff" fill-rule="evenodd" clip-rule="evenodd" d="M381.408,19.92c-5.97-0.91-9.646-4.225-9.582-10.136
		c0.073-6.724,4.427-9.938,10.854-9.537c6.154,0.382,9.099,4.522,8.74,10.399C391.054,16.633,387.294,19.655,381.408,19.92z"/>
	<path fill="#fff" fill-rule="evenodd" clip-rule="evenodd" d="M19.745,95.375c-0.866,5.656-4.107,9.408-10.086,9.222
		C3.095,104.391-0.47,100.175,0,93.737c0.437-5.985,4.512-9.18,10.465-8.738C16.413,85.441,19.503,89.169,19.745,95.375z"/>
	<path fill="#fff" fill-rule="evenodd" clip-rule="evenodd" d="M50.924,117.674c-0.065,6.052-3.21,9.901-9.059,10.286
		c-6.546,0.429-10.353-3.446-10.432-9.996c-0.074-6.086,3.642-9.604,9.54-9.663C46.821,108.239,50.397,111.57,50.924,117.674z"/>
	<path fill="#fff" fill-rule="evenodd" clip-rule="evenodd" d="M19.824,33.813c-0.692,5.501-3.156,9.652-9.407,9.862
		C3.723,43.901-0.079,40.08-0.064,33.666c0.013-5.856,3.588-9.491,9.755-9.431C15.736,24.295,18.923,27.79,19.824,33.813z"/>
	<path fill="#fff" fill-rule="evenodd" clip-rule="evenodd" d="M445.089,0c5.844,0.194,9.747,3.096,10.255,9.079
		c0.504,5.939-2.665,9.998-8.625,10.571c-6.523,0.629-10.668-2.983-11.018-9.484C435.379,4.158,439.079,0.848,445.089,0z"/>
	<path fill="#fff" fill-rule="evenodd" clip-rule="evenodd" d="M477.208,84.677c6.667,0.663,10.309,3.93,10.03,10.601
		c-0.255,6.084-3.872,9.39-9.712,9.314c-6.451-0.083-10.022-3.917-9.84-10.452C467.857,88.026,471.74,85.317,477.208,84.677z"/>
	<path fill="#fff" fill-rule="evenodd" clip-rule="evenodd" d="M104.871,128.181c-5.788-0.843-9.428-3.833-9.596-9.905
		c-0.17-6.162,3.379-9.786,9.2-9.968c6.404-0.201,10.316,3.423,10.145,10.185C114.462,124.653,110.586,127.406,104.871,128.181z"/>
	<path fill="#fff" fill-rule="evenodd" clip-rule="evenodd" d="M391.483,33.146c-0.658,6.766-3.666,10.512-9.766,10.509
		c-6.637,0-10.231-3.889-9.935-10.413c0.276-6.042,4.101-9.06,10.145-8.963C388.245,24.382,390.706,28.37,391.483,33.146z"/>
	<path fill="#fff" fill-rule="evenodd" clip-rule="evenodd" d="M19.833,64.197c-0.773,6.022-3.73,9.848-9.789,9.915
		C3.329,74.188-0.249,69.963-0.037,63.679c0.197-5.842,4.043-9.194,10.17-9.005C16.329,54.865,19.074,58.647,19.833,64.197z"/>
	<path fill="#fff" fill-rule="evenodd" clip-rule="evenodd" d="M487.301,63.803c-0.1,6.124-3.189,9.846-9.086,10.242
		c-6.6,0.445-10.313-3.352-10.395-9.855c-0.076-6.056,3.497-9.413,9.522-9.512C483.389,54.577,486.623,57.952,487.301,63.803z"/>
	<path fill="#fff" fill-rule="evenodd" clip-rule="evenodd" d="M414.456,43.747c-6.277-0.097-9.922-3.032-10.424-9.026
		c-0.498-5.976,2.471-9.929,8.489-10.408c6.391-0.511,10.594,2.67,10.807,9.383C423.519,39.704,420.014,42.92,414.456,43.747z"/>
	<path fill="#fff" fill-rule="evenodd" clip-rule="evenodd" d="M413.493,19.855c-6.108-0.813-9.663-3.937-9.513-10.012
		c0.167-6.704,4.176-10.06,10.662-9.517c5.938,0.498,9.13,4.384,8.706,10.348C422.923,16.653,419.112,19.519,413.493,19.855z"/>
	<path fill="#fff" fill-rule="evenodd" clip-rule="evenodd" d="M279.635,118.624c-0.646,5.985-3.774,9.608-9.669,9.715
		c-6.556,0.117-10.227-3.755-9.929-10.183c0.27-5.837,3.929-9.134,9.979-8.92C276.03,109.451,278.983,112.989,279.635,118.624z"/>
	<path fill="#fff" fill-rule="evenodd" clip-rule="evenodd" d="M477.264,43.766c-6.023-0.636-9.431-3.951-9.432-9.89
		c-0.001-6.743,4.043-10.005,10.543-9.561c6.039,0.413,9.151,4.28,8.8,10.214C486.825,40.483,483.195,43.54,477.264,43.766z"/>
	<path fill-rule="evenodd" clip-rule="evenodd" fill="none" d="M433.246,83.85c-3.965-0.327-9.261,0.458-8.913-5.022
		c0.389-6.132,6.193-4.435,10.168-4.607c3.42-0.15,7.992-0.512,8.07,4.299C442.68,85.119,436.976,83.331,433.246,83.85z"/>
	<path fill-rule="evenodd" clip-rule="evenodd" fill="none" d="M289.311,43.945c4.149,0.442,9.36-0.634,9.183,4.953
		c-0.199,6.296-5.969,4.7-9.826,4.808c-3.671,0.101-8.822,0.403-8.183-5.273C281.064,43.277,286.106,44.364,289.311,43.945z"/>
<path fill="#fff" fill-rule="evenodd" clip-rule="evenodd" d="M144.871,83.181c-5.788-0.843-9.428-3.833-9.596-9.905
	c-0.17-6.162,3.379-9.786,9.2-9.968c6.404-0.201,10.316,3.423,10.145,10.185C154.462,79.653,150.586,82.406,144.871,83.181z"/>
</svg>
